<mxfile host="app.diagrams.net" modified="2021-10-09T03:16:13.769Z" agent="5.0 (Macintosh; Intel Mac OS X 10_15_7) AppleWebKit/537.36 (KHTML, like Gecko) Chrome/94.0.4606.71 Safari/537.36 Edg/94.0.992.38" etag="NXUMpz4naTnxegBLcyV4" version="15.5.0" type="github">
  <diagram id="7ICswB9XVIRxDRskwiAq" name="Page-1">
    <mxGraphModel dx="2066" dy="1154" grid="1" gridSize="10" guides="1" tooltips="1" connect="1" arrows="1" fold="1" page="1" pageScale="1" pageWidth="827" pageHeight="1169" math="0" shadow="0">
      <root>
        <mxCell id="0" />
        <mxCell id="1" parent="0" />
        <mxCell id="lcDPc0lSd1bfx175fwZI-13" value="采集日志" style="edgeStyle=orthogonalEdgeStyle;rounded=0;orthogonalLoop=1;jettySize=auto;html=1;exitX=1;exitY=0.5;exitDx=0;exitDy=0;" edge="1" parent="1" source="lcDPc0lSd1bfx175fwZI-1" target="lcDPc0lSd1bfx175fwZI-6">
          <mxGeometry relative="1" as="geometry" />
        </mxCell>
        <mxCell id="lcDPc0lSd1bfx175fwZI-1" value="&lt;p&gt;&lt;font style=&quot;font-size: 20px&quot;&gt;我们的服务器&lt;/font&gt;&lt;/p&gt;" style="whiteSpace=wrap;html=1;aspect=fixed;fillColor=#d5e8d4;strokeColor=#82b366;" vertex="1" parent="1">
          <mxGeometry x="60" y="90" width="150" height="150" as="geometry" />
        </mxCell>
        <mxCell id="lcDPc0lSd1bfx175fwZI-17" value="&lt;font style=&quot;font-size: 12px&quot;&gt;日志主题&lt;/font&gt;" style="edgeStyle=orthogonalEdgeStyle;rounded=0;orthogonalLoop=1;jettySize=auto;html=1;fontSize=20;" edge="1" parent="1" source="lcDPc0lSd1bfx175fwZI-6" target="lcDPc0lSd1bfx175fwZI-7">
          <mxGeometry relative="1" as="geometry" />
        </mxCell>
        <mxCell id="lcDPc0lSd1bfx175fwZI-6" value="&lt;font style=&quot;font-size: 20px&quot;&gt;CLS服务器&lt;/font&gt;" style="whiteSpace=wrap;html=1;aspect=fixed;fillColor=#d5e8d4;strokeColor=#82b366;" vertex="1" parent="1">
          <mxGeometry x="360" y="190" width="150" height="150" as="geometry" />
        </mxCell>
        <mxCell id="lcDPc0lSd1bfx175fwZI-23" value="&lt;font style=&quot;font-size: 12px&quot;&gt;存储&lt;/font&gt;" style="edgeStyle=orthogonalEdgeStyle;rounded=0;orthogonalLoop=1;jettySize=auto;html=1;exitX=0.5;exitY=1;exitDx=0;exitDy=0;fontSize=20;" edge="1" parent="1" source="lcDPc0lSd1bfx175fwZI-7" target="lcDPc0lSd1bfx175fwZI-14">
          <mxGeometry relative="1" as="geometry" />
        </mxCell>
        <mxCell id="lcDPc0lSd1bfx175fwZI-7" value="&lt;font style=&quot;font-size: 20px&quot;&gt;kafka消息队列&lt;/font&gt;" style="whiteSpace=wrap;html=1;aspect=fixed;fillColor=#d5e8d4;strokeColor=#82b366;" vertex="1" parent="1">
          <mxGeometry x="640" y="90" width="150" height="150" as="geometry" />
        </mxCell>
        <mxCell id="lcDPc0lSd1bfx175fwZI-8" value="logListener进程" style="rounded=0;whiteSpace=wrap;html=1;fillColor=#ffe6cc;strokeColor=#d79b00;" vertex="1" parent="1">
          <mxGeometry x="110" y="90" width="100" height="40" as="geometry" />
        </mxCell>
        <mxCell id="lcDPc0lSd1bfx175fwZI-14" value="&lt;font style=&quot;font-size: 20px&quot;&gt;es服务器&lt;/font&gt;" style="whiteSpace=wrap;html=1;aspect=fixed;fillColor=#d5e8d4;strokeColor=#82b366;" vertex="1" parent="1">
          <mxGeometry x="640" y="320" width="150" height="150" as="geometry" />
        </mxCell>
        <mxCell id="lcDPc0lSd1bfx175fwZI-20" value="采集日志" style="edgeStyle=orthogonalEdgeStyle;rounded=0;orthogonalLoop=1;jettySize=auto;html=1;exitX=1;exitY=0.5;exitDx=0;exitDy=0;fontSize=12;" edge="1" parent="1" source="lcDPc0lSd1bfx175fwZI-18" target="lcDPc0lSd1bfx175fwZI-6">
          <mxGeometry relative="1" as="geometry" />
        </mxCell>
        <mxCell id="lcDPc0lSd1bfx175fwZI-18" value="&lt;p&gt;&lt;font style=&quot;font-size: 20px&quot;&gt;我们的服务器&lt;/font&gt;&lt;/p&gt;" style="whiteSpace=wrap;html=1;aspect=fixed;fillColor=#d5e8d4;strokeColor=#82b366;" vertex="1" parent="1">
          <mxGeometry x="60" y="320" width="150" height="150" as="geometry" />
        </mxCell>
        <mxCell id="lcDPc0lSd1bfx175fwZI-19" value="logListener进程" style="rounded=0;whiteSpace=wrap;html=1;fillColor=#ffe6cc;strokeColor=#d79b00;" vertex="1" parent="1">
          <mxGeometry x="110" y="320" width="100" height="40" as="geometry" />
        </mxCell>
      </root>
    </mxGraphModel>
  </diagram>
</mxfile>
